# xmcd
#
# Track frame offsets:
#	150
#	14758
#	56662
#	71304
#	84122
#	110529
#	132508
#	149897
#	164100
#	194133
#	210045
#	233249
#	279065
#	298908
#	310874
#	322006
#
# Disc length: 4472 seconds
#
# Revision: 0
# Processed by: cddbd v1.5.2PL0 Copyright (c) Steve Scherf et al.
# Submitted via: dBpowerAMP V4.0
#
DISCID=f9117610
DTITLE=Various Artist - Maxi Blues CD 3
DYEAR=1900
DGENRE=Blues
TTITLE0=Kansas City - Jimmy Witherspoon
TTITLE1=I get the feeling - Albert Collins
TTITLE2=King's shuffle - B.B. King
TTITLE3=Too many cooks - Robert Cray
TTITLE4=They call me Muddy waters - Muddy Waters
TTITLE5=Rainy days - Brownie McGhee
TTITLE6=St-Louis blues - Jimmy Witherspoon
TTITLE7=Slim's blues - Memphis Slim
TTITLE8=I'll play the blues for you - Albert King
TTITLE9=Midnight rambler - Louisiana Red
TTITLE10=Sweet little angel - B.B. King
TTITLE11=Blues at sunrise - Albert King
TTITLE12=Mellow fellow - Fenton Robinson
TTITLE13=Blue light boogie - Magic Sam
TTITLE14=Good rockin' tonight - Jimmy Witherspoon
TTITLE15=Rolling and rolling - Lightnin' Hopkins
EXTD=
EXTT0=
EXTT1=
EXTT2=
EXTT3=
EXTT4=
EXTT5=
EXTT6=
EXTT7=
EXTT8=
EXTT9=
EXTT10=
EXTT11=
EXTT12=
EXTT13=
EXTT14=
EXTT15=
PLAYORDER=
